{"title":"How.Not.to.Live.Your.Life.S01.Season.1.DVDRip.XviD-AFFiNiTY","uid":5144826,"size":1461695392,"categoryP":"video","categoryS":"tv_shows","magnet":"?xt=urn:btih:176847a26aca97d0fabbb1bf9dc9dcee30955d33&amp;dn=How.Not.to.Live.Your.Life.S01.Season.1.DVDRip.XviD-AFFiNiTY&amp;tr=udp%3A%2F%2Ftracker.openbittorrent.com%3A80&amp;tr=udp%3A%2F%2Fopen.demonii.com%3A1337&amp;tr=udp%3A%2F%2Ftracker.coppersurfer.tk%3A6969&amp;tr=udp%3A%2F%2Fexodus.desync.com%3A6969","seeders":1,"leechers":1,"uploader":null,"files":12,"time":1257160729,"description":"How Not To Live Your Life is a British sitcom, written by and starring Dan Clark, about a neurotic twenty-nine year old man who is trying to navigate his way through life but is not helped by his bad instincts. &lt;a href=&quot;\nhttp://en.wikipedia.org/wiki/How_Not_To_Live_Your_Life&quot; rel=&quot;nofollow&quot; target=&quot;_NEW&quot;&gt;\nhttp://en.wikipedia.org/wiki/How_Not_To_Live_Your_Life&lt;/a&gt;\nhttp://www.imdb.com/title/tt1270367/\n\n\n\nGeneral\nComplete name                    : How.Not.to.Live.Your.Life.S01E01.DVDRip.XviD-AFFiNiTY.avi\nFormat                           : AVI\nFormat/Info                      : Audio Video Interleave\nFile size                        : 232 MiB\nDuration                         : 28mn 27s\nOverall bit rate                 : 1 142 Kbps\nWriting application              : VirtualDubMod 1.5.10.2 (build 2540/release)\nWriting library                  : VirtualDubMod build 2540/release\n\nVideo\nID                               : 0\nFormat                           : MPEG-4 Visual\nFormat profile                   : AdvancedSimple@L5\nFormat settings, BVOP            : Yes\nFormat settings, QPel            : No\nFormat settings, GMC             : No warppoints\nFormat settings, Matrix          : Default (H.263)\nMuxing mode                      : Packed bitstream\nCodec ID                         : XVID\nCodec ID/Hint                    : XviD\nDuration                         : 28mn 27s\nBit rate                         : 1 000 Kbps\nWidth                            : 624 pixels\nHeight                           : 352 pixels\nDisplay aspect ratio             : 16:9\nFrame rate                       : 25.000 fps\nResolution                       : 24 bits\nColorimetry                      : 4:2:0\nScan type                        : Progressive\nBits/(Pixel*Frame)               : 0.182\nStream size                      : 203 MiB (88%)\nWriting library                  : XviD 1.2.1 (UTC 2008-12-04)\n\nAudio\nID                               : 1\nFormat                           : MPEG Audio\nFormat version                   : Version 1\nFormat profile                   : Layer 3\nCodec ID                         : 55\nCodec ID/Hint                    : MP3\nDuration                         : 28mn 27s\nBit rate mode                    : Variable\nBit rate                         : 129 Kbps\nNominal bit rate                 : 135 Kbps\nChannel(s)                       : 2 channels\nSampling rate                    : 48.0 KHz\nResolution                       : 16 bits\nStream size                      : 26.2 MiB (11%)\nAlignment                        : Aligned on interleaves\nInterleave, duration             : 24 ms (0.60 video frame)\nInterleave, preload duration     : 501 ms\nWriting library                  : LAME3.98r\nEncoding settings                : -m j -V 4 -q 2 -lowpass 17 --abr 135\n\n","torrent":{"xt":"urn:btih:176847a26aca97d0fabbb1bf9dc9dcee30955d33","amp;dn":"How.Not.to.Live.Your.Life.S01.Season.1.DVDRip.XviD-AFFiNiTY","amp;tr":["udp%3A%2F%2Ftracker.openbittorrent.com%3A80","udp%3A%2F%2Fopen.demonii.com%3A1337","udp%3A%2F%2Ftracker.coppersurfer.tk%3A6969","udp%3A%2F%2Fexodus.desync.com%3A6969"],"infoHash":"176847a26aca97d0fabbb1bf9dc9dcee30955d33","infoHashBuffer":{"type":"Buffer","data":[23,104,71,162,106,202,151,208,250,187,177,191,157,201,220,238,48,149,93,51]},"announce":[],"urlList":[]}}